<svg xmlns="http://www.w3.org/2000/svg" data-name="Layer 1" width="800" height="380"
    viewBox="0 0 800 380" xmlns:xlink="http://www.w3.org/1999/xlink">
    <title>error_404</title>
	<g transform="matrix(1 0 0 1 402.11 44.82)">
		<g style="">
			<g transform="matrix(1 0 0 1 -262.05 94.25)" id="svg_15">
				<path
					style="stroke: none; stroke-width: 1; stroke-dasharray: none; stroke-linecap: butt; stroke-dashoffset: 0; stroke-linejoin: miter; stroke-miterlimit: 4; fill: rgb(63,61,86); fill-rule: nonzero; opacity: 1;"
					transform=" translate(-168.02, -379.82)"
					d="m 262.99 409.84 a 6.73 6.73 0 0 0 -1.7 -2.67 a 6.43 6.43 0 0 0 -0.92 -0.71 c -2.61 -1.74 -6.51 -2.13 -8.99 0 a 5.81 5.81 0 0 0 -0.69 0.71 q -1.11 1.36 -2.28 2.67 c -1.28 1.46 -2.59 2.87 -3.96 4.24 c -0.39 0.38 -0.78 0.77 -1.18 1.15 c -0.23 0.23 -0.46 0.45 -0.69 0.67 c -0.88 0.84 -1.78 1.65 -2.69 2.45 c -0.48 0.43 -0.96 0.85 -1.45 1.26 c -0.73 0.61 -1.46 1.22 -2.2 1.81 c -0.07 0.05 -0.14 0.1 -0.21 0.16 c -0.02 0.01 -0.03 0.03 -0.05 0.04 c -0.01 0 -0.02 0 -0.03 0.02 a 0.18 0.18 0 0 0 -0.07 0.05 c -0.22 0.15 -0.37 0.25 -0.48 0.34 c 0.04 -0.02 0.08 -0.05 0.12 -0.07 c -0.18 0.14 -0.37 0.28 -0.55 0.42 c -1.75 1.29 -3.54 2.53 -5.37 3.69 a 99.21 99.21 0 0 1 -14.22 7.55 c -0.33 0.13 -0.67 0.27 -1.01 0.4 a 85.97 85.97 0 0 1 -40.85 6.02 q -2.13 -0.17 -4.26 -0.45 c -1.64 -0.24 -3.27 -0.53 -4.89 -0.86 a 97.93 97.93 0 0 1 -18.02 -5.44 a 118.65 118.65 0 0 1 -20.66 -12.12 c -1 -0.71 -2.01 -1.42 -3.02 -2.11 c 1.15 -2.82 2.28 -5.64 3.38 -8.48 c 0.55 -1.37 1.08 -2.74 1.6 -4.12 c 4.09 -10.63 7.93 -21.36 11.61 -32.13 q 5.58 -16.37 10.53 -32.92 q 0.51 -1.68 0.99 -3.36 q 2.6 -8.75 4.98 -17.53 c 0.15 -0.57 0.31 -1.13 0.45 -1.7 q 0.69 -2.52 1.35 -5.04 c 1 -3.79 -1.26 -8.32 -5.24 -9.23 a 7.63 7.63 0 0 0 -9.22 5.24 c -0.43 1.62 -0.86 3.23 -1.3 4.85 q -3.16 11.74 -6.66 23.41 q -0.51 1.68 -1.02 3.36 q -7.71 25.41 -16.93 50.31 q -1.11 3.01 -2.25 6.01 c -0.37 0.98 -0.74 1.96 -1.12 2.94 c -0.73 1.93 -1.48 3.86 -2.23 5.79 c -0.43 1.13 -0.87 2.26 -1.31 3.38 c -0.29 0.71 -0.57 1.42 -0.85 2.12 a 41.81 41.81 0 0 0 -8.81 -2.12 l -0.48 -0.06 a 27.4 27.4 0 0 0 -7.01 0.06 a 23.91 23.91 0 0 0 -17.24 10.66 c -4.77 7.51 -4.71 18.25 1.98 24.63 c 6.89 6.57 17.32 6.52 25.43 2.41 a 28.35 28.35 0 0 0 10.52 -9.86 a 50.57 50.57 0 0 0 2.74 -4.65 c 0.21 0.14 0.42 0.28 0.63 0.43 c 0.8 0.56 1.6 1.13 2.39 1.69 a 111.74 111.74 0 0 0 14.51 8.91 a 108.36 108.36 0 0 0 34.62 10.47 c 0.27 0.03 0.53 0.07 0.8 0.1 c 1.33 0.17 2.67 0.3 4.01 0.41 a 103.78 103.78 0 0 0 55.58 -11.36 q 2.18 -1.13 4.31 -2.36 q 3.32 -1.92 6.48 -4.08 c 1.15 -0.78 2.27 -1.57 3.38 -2.4 a 101.04 101.04 0 0 0 13.51 -11.95 q 2.36 -2.48 4.51 -5.11 a 8.06 8.06 0 0 0 2.2 -5.3 a 7.56 7.56 0 0 0 -0.5 -2.64 z m -165.59 23.82 c 0.21 -0.15 0.42 -0.31 0.62 -0.47 c -0.06 0.15 -0.35 0.32 -0.62 0.47 z m 3.21 -3.23 c -0.23 0.26 -0.44 0.52 -0.67 0.78 a 23.37 23.37 0 0 1 -2.25 2.2 c -0.11 0.1 -0.23 0.2 -0.35 0.29 a 0.01 0.01 0 0 0 -0.01 0.01 a 3.8 3.8 0 0 0 -0.42 0.22 q -0.64 0.39 -1.32 0.72 a 17 17 0 0 1 -2.71 0.75 a 16.8 16.8 0 0 1 -2.13 0.02 l -0.02 0 a 14.82 14.82 0 0 1 -1.45 -0.4 c -0.24 -0.12 -0.47 -0.26 -0.7 -0.4 c -0.09 -0.08 -0.17 -0.16 -0.22 -0.21 a 2.44 2.44 0 0 1 -0.27 -0.29 a 0.01 0.01 0 0 0 -0.01 -0.01 c -0.11 -0.2 -0.23 -0.4 -0.34 -0.6 a 0.03 0.03 0 0 1 -0.01 -0.02 c -0.08 -0.25 -0.15 -0.51 -0.21 -0.77 a 12.51 12.51 0 0 1 0.01 -1.37 a 13.47 13.47 0 0 1 0.54 -1.88 a 11.07 11.07 0 0 1 0.69 -1.26 c 0.02 -0.04 0.12 -0.2 0.23 -0.38 c 0.01 -0.01 0.01 -0.01 0.01 -0.02 c 0.15 -0.17 0.3 -0.35 0.46 -0.51 c 0.27 -0.3 0.56 -0.56 0.85 -0.83 a 18.02 18.02 0 0 1 1.75 -1.01 a 19.48 19.48 0 0 1 2.93 -0.79 a 24.99 24.99 0 0 1 4.41 0.04 a 30.3 30.3 0 0 1 4.1 1.01 a 36.94 36.94 0 0 1 -2.77 4.54 c -0.04 0.06 -0.08 0.12 -0.12 0.17 z m -11.12 -3.29 a 2.18 2.18 0 0 1 -0.31 0.39 a 1.41 1.41 0 0 1 0.31 -0.39 z"
					stroke-linecap="round" />
			</g>
			<g transform="matrix(1 0 0 1 -208.09 144.62)" id="svg_16">
				<path
					style="stroke: none; stroke-width: 1; stroke-dasharray: none; stroke-linecap: butt; stroke-dashoffset: 0; stroke-linejoin: miter; stroke-miterlimit: 4; fill: rgb(63,61,86); fill-rule: nonzero; opacity: 1;"
					transform=" translate(-221.98, -430.2)"
					d="m 232.93 307.71 q -0.13 4.71 -0.27 9.42 q -0.28 10.45 -0.59 20.92 q -0.31 11.77 -0.66 23.54 q -0.16 6.07 -0.34 12.15 q -0.46 16.36 -0.92 32.72 c -0.03 1.13 -0.07 2.25 -0.1 3.38 q -0.22 8.11 -0.45 16.23 q -0.25 8.8 -0.5 17.61 q -0.18 6.6 -0.37 13.21 q -1.35 47.89 -2.7 95.79 a 7.65 7.65 0 0 1 -7.5 7.5 a 7.56 7.56 0 0 1 -7.5 -7.5 q 0.75 -26.94 1.52 -53.88 q 0.68 -24.36 1.37 -48.72 q 0.23 -8.03 0.45 -16.06 q 0.35 -12.09 0.68 -24.18 c 0.03 -1.13 0.07 -2.25 0.1 -3.38 c 0.02 -0.99 0.05 -1.97 0.08 -2.96 q 0.66 -23.48 1.32 -46.96 q 0.27 -9.24 0.52 -18.49 q 0.3 -10.55 0.6 -21.08 c 0.09 -3.09 0.17 -6.17 0.26 -9.26 a 7.65 7.65 0 0 1 7.5 -7.5 a 7.56 7.56 0 0 1 7.5 7.5 z"
					stroke-linecap="round" />
			</g>
			<g transform="matrix(1 0 0 1 239.21 94.23)" id="svg_17">
				<path
					style="stroke: none; stroke-width: 1; stroke-dasharray: none; stroke-linecap: butt; stroke-dashoffset: 0; stroke-linejoin: miter; stroke-miterlimit: 4; fill: rgb(63,61,86); fill-rule: nonzero; opacity: 1;"
					transform=" translate(-669.28, -379.8)"
					d="m 644.36 309.79 a 893.24 893.24 0 0 1 -28.16 87.94 c -3.01 7.94 -6.08 15.88 -9.37 23.71 l 0.75 -1.79 a 54.58 54.58 0 0 1 -5.58 10.61 q -0.23 0.32 -0.47 0.64 q 1.16 -1.49 0.44 -0.59 c -0.25 0.3 -0.5 0.6 -0.77 0.89 a 23.66 23.66 0 0 1 -2.25 2.21 q -0.3 0.25 -0.61 0.5 l 0.94 -0.73 c -0.11 0.26 -0.87 0.6 -1.11 0.74 a 18.25 18.25 0 0 1 -2.4 1.22 l 1.79 -0.75 a 19.09 19.09 0 0 1 -4.23 1.16 l 1.99 -0.27 a 17.02 17.02 0 0 1 -4.3 0.05 l 2 0.26 a 14 14 0 0 1 -3.41 -0.91 l 1.79 0.75 a 12.01 12.01 0 0 1 -1.68 -0.89 c -0.27 -0.18 -1.1 -0.81 -0.01 0.02 c 1.13 0.87 0.14 0.08 -0.09 -0.15 c -0.19 -0.2 -0.37 -0.4 -0.56 -0.6 c -0.88 -0.9 1 1.56 0.4 0.5 a 18.18 18.18 0 0 1 -0.88 -1.64 l 0.76 1.79 a 11.92 11.92 0 0 1 -0.73 -2.65 l 0.27 2 a 13.65 13.65 0 0 1 -0.01 -3.41 l -0.27 2 a 15.96 15.96 0 0 1 1 -3.68 l -0.76 1.79 a 16.73 16.73 0 0 1 1.18 -2.3 a 6.73 6.73 0 0 1 0.73 -1.07 c 0.05 0.01 -1.27 1.51 -0.57 0.75 c 0.18 -0.19 0.35 -0.4 0.54 -0.6 c 0.3 -0.31 0.61 -0.6 0.92 -0.9 c 1.05 -0.99 -1.46 0.97 -0.25 0.18 a 19.05 19.05 0 0 1 2.75 -1.5 l -1.79 0.76 a 20.31 20.31 0 0 1 4.99 -1.34 l -1.99 0.27 a 25.63 25.63 0 0 1 6.46 0.07 l -2 -0.26 a 33.21 33.21 0 0 1 7.9 2.22 l -1.8 -0.76 c 5.39 2.31 10.17 5.75 14.93 9.12 a 111.95 111.95 0 0 0 14.51 8.9 a 108.39 108.39 0 0 0 34.62 10.48 a 103.93 103.93 0 0 0 92.59 -36.75 a 8.08 8.08 0 0 0 2.19 -5.31 a 7.63 7.63 0 0 0 -2.19 -5.3 c -2.76 -2.53 -7.95 -3.24 -10.61 0 a 95.64 95.64 0 0 1 -8.11 8.73 q -2.01 1.91 -4.14 3.71 q -1.21 1.02 -2.46 2.01 c -0.39 0.31 -1.62 1.14 0.26 -0.2 c -0.43 0.31 -0.84 0.64 -1.27 0.96 a 99.27 99.27 0 0 1 -20.33 11.56 l 1.79 -0.76 a 96.84 96.84 0 0 1 -24.17 6.63 l 1.99 -0.27 a 97.64 97.64 0 0 1 -25.75 -0.04 l 1.99 0.27 a 99.8 99.8 0 0 1 -24.85 -6.77 l 1.79 0.75 a 116.03 116.03 0 0 1 -21.74 -12.59 a 86.88 86.88 0 0 0 -11.11 -6.99 a 42.82 42.82 0 0 0 -14.44 -4.39 c -9.44 -1.11 -19.06 2.57 -24.24 10.72 c -4.78 7.51 -4.72 18.24 1.97 24.63 c 6.89 6.57 17.32 6.51 25.43 2.4 c 7.82 -3.96 12.52 -12.18 15.82 -19.94 c 7.43 -17.46 14.01 -35.31 20.14 -53.26 q 9.1 -26.64 16.5 -53.82 q 0.92 -3.36 1.81 -6.74 c 1 -3.78 -1.27 -8.32 -5.24 -9.22 a 7.63 7.63 0 0 0 -9.23 5.24 z"
					stroke-linecap="round" />
			</g>
			<g transform="matrix(1 0 0 1 293.17 144.62)" id="svg_18">
				<path
					style="stroke: none; stroke-width: 1; stroke-dasharray: none; stroke-linecap: butt; stroke-dashoffset: 0; stroke-linejoin: miter; stroke-miterlimit: 4; fill: rgb(63,61,86); fill-rule: nonzero; opacity: 1;"
					transform=" translate(-723.24, -430.2)"
					d="m 719.19 307.71 l -2.7 95.79 l -2.68 95.29 l -1.52 53.89 a 7.56 7.56 0 0 0 7.5 7.5 a 7.65 7.65 0 0 0 7.5 -7.5 l 2.7 -95.8 l 2.69 -95.29 l 1.51 -53.88 a 7.56 7.56 0 0 0 -7.5 -7.5 a 7.65 7.65 0 0 0 -7.5 7.5 z"
					stroke-linecap="round" />
			</g>
			<g transform="matrix(1 0 0 1 -0.81 143.71)" id="svg_19">
				<path
					style="stroke: none; stroke-width: 1; stroke-dasharray: none; stroke-linecap: butt; stroke-dashoffset: 0; stroke-linejoin: miter; stroke-miterlimit: 4; fill: rgb(0,0,0); fill-rule: nonzero; opacity: 0.2;"
					transform=" translate(-429.25, -429.28)"
					d="m 459.6 525.93 l 2.32 0 l 0 -106.04 l 54.33 0 l 0 -2.32 l -54.33 0 l 0 -44.75 l 41.96 0 q -0.92 -1.17 -1.9 -2.31 l -40.06 0 l 0 -29.56 c -0.77 -0.33 -1.54 -0.64 -2.32 -0.94 l 0 30.5 l -45.66 0 l 0 -37.87 c -0.78 0.04 -1.55 0.09 -2.33 0.16 l 0 37.71 l -36.42 0 l 0 -28.26 c -0.78 0.35 -1.55 0.71 -2.31 1.1 l 0 27.16 l -30.62 0 l 0 2.31 l 30.62 0 l 0 44.75 l -30.62 0 l 0 2.32 l 30.62 0 l 0 106.04 l 2.31 0 l 0 -106.04 a 36.41 36.41 0 0 1 36.42 36.42 l 0 69.62 l 2.33 0 l 0 -106.04 l 45.66 0 l 0 106.04 z m -84.41 -108.36 l 0 -44.75 l 36.42 0 l 0 44.75 l -36.42 0 z m 38.75 0 l 0 -44.75 l 0.92 0 a 44.74 44.74 0 0 1 44.74 44.75 l -45.66 0 z"
					stroke-linecap="round" />
			</g>
			<g transform="matrix(1 0 0 1 -3.6 201.11)" id="svg_20">
				<path
					style="stroke: none; stroke-width: 1; stroke-dasharray: none; stroke-linecap: butt; stroke-dashoffset: 0; stroke-linejoin: miter; stroke-miterlimit: 4; fill: rgb(63,61,86); fill-rule: nonzero; opacity: 1;"
					transform=" translate(-426.47, -486.68)"
					d="m 445.37 494.14 a 63.06 63.06 0 0 1 -20.05 33.7 c -0.74 0.64 -1.48 1.26 -2.25 1.87 q -2.8 0.25 -5.57 0.52 c -1.53 0.14 -3.04 0.29 -4.54 0.43 l -0.27 0.03 l -0.19 -1.64 l -0.76 -6.64 a 37.62 37.62 0 0 1 -3.3 -32.44 c 2.64 -7.12 7.42 -13.41 12.12 -19.65 c 6.49 -8.62 12.8 -17.14 13.03 -27.65 a 60.54 60.54 0 0 1 7.9 13.33 a 16.43 16.43 0 0 0 -5.12 3.77 c -0.41 0.45 -0.82 1.08 -0.54 1.62 c 0.24 0.46 0.84 0.57 1.36 0.63 c 1.25 0.13 2.51 0.26 3.76 0.39 c 1 0.11 2 0.21 3 0.32 a 63.99 63.99 0 0 1 2.45 12.18 a 61.19 61.19 0 0 1 -1.03 19.23 z"
					stroke-linecap="round" />
			</g>
			<g transform="matrix(1 0 0 1 15.69 223.68)" id="svg_21">
				<path
					style="stroke: none; stroke-width: 1; stroke-dasharray: none; stroke-linecap: butt; stroke-dashoffset: 0; stroke-linejoin: miter; stroke-miterlimit: 4; fill: rgb(0,191,166); fill-rule: nonzero; opacity: 1;"
					transform=" translate(-615.69, -673.68)"
					d="m 648.5 642.36 c -5.9 4.29 -9.35 10.46 -12.03 17.26 a 16.63 16.63 0 0 0 -7.17 4.58 c -0.41 0.45 -0.82 1.08 -0.54 1.62 c 0.24 0.46 0.84 0.57 1.36 0.63 c 1.25 0.13 2.51 0.26 3.76 0.39 c -2.68 8.04 -5.14 16.36 -9.88 23.15 a 36.99 36.99 0 0 1 -12.03 10.91 a 38.49 38.49 0 0 1 -4.02 1.99 q -7.62 0.58 -14.95 1.25 q -2.8 0.25 -5.57 0.52 c -1.53 0.14 -3.04 0.29 -4.54 0.43 q -0.01 -0.83 0 -1.65 a 63.3 63.3 0 0 1 15.25 -39.86 c 0.45 -0.52 0.91 -1.03 1.38 -1.54 a 61.79 61.79 0 0 1 16.81 -12.7 a 62.65 62.65 0 0 1 32.17 -6.98 z"
					stroke-linecap="round" />
			</g>
			<g transform="matrix(1 0 0 1 -19.15 201.31)" id="svg_22">
				<path
					style="stroke: none; stroke-width: 1; stroke-dasharray: none; stroke-linecap: butt; stroke-dashoffset: 0; stroke-linejoin: miter; stroke-miterlimit: 4; fill: rgb(0,191,166); fill-rule: nonzero; opacity: 1;"
					transform=" translate(-410.91, -486.88)"
					d="m 419.23 525.1 l -1.15 3.4 l -0.58 1.73 c -1.53 0.14 -3.04 0.29 -4.54 0.43 l -0.27 0.03 c -1.66 0.17 -3.31 0.34 -4.96 0.51 c -0.43 -0.5 -0.86 -1.01 -1.28 -1.53 a 62.03 62.03 0 0 1 8.07 -87.11 c -1.32 6.91 0.22 13.53 2.75 20.1 c -0.27 0.11 -0.53 0.22 -0.78 0.34 a 16.43 16.43 0 0 0 -5.12 3.77 c -0.41 0.45 -0.82 1.08 -0.54 1.62 c 0.24 0.46 0.84 0.57 1.36 0.63 c 1.25 0.13 2.51 0.26 3.76 0.39 c 1 0.11 2 0.21 3 0.32 q 0.71 0.07 1.41 0.15 c 0.07 0.15 0.13 0.29 0.2 0.44 c 2.85 6.18 5.92 12.39 7.65 18.83 a 43.67 43.67 0 0 1 1.02 4.91 a 37.6 37.6 0 0 1 -10 31.04 z"
					stroke-linecap="round" />
			</g>
			<g transform="matrix(1 0 0 1 -7.69 154.93)" id="svg_23">
				<path
					style="stroke: none; stroke-width: 1; stroke-dasharray: none; stroke-linecap: butt; stroke-dashoffset: 0; stroke-linejoin: miter; stroke-miterlimit: 4; fill: rgb(63,61,86); fill-rule: nonzero; opacity: 1;"
					transform=" translate(-422.37, -440.5)"
					d="m 519.89 380.06 c -8.61 -16.8 -21.94 -30.92 -37.63 -41.31 a 114.24 114.24 0 0 0 -52.56 -18.38 q -3.69 -0.33 -7.4 -0.39 c -2.92 -0.04 -46.87 12.63 -61.59 22.98 a 114.29 114.29 0 0 0 -35.33 39.53 a 102.5 102.5 0 0 0 -12.13 51.63 a 113.56 113.56 0 0 0 14.7 51.48 a 110.48 110.48 0 0 0 36.45 38.74 c 15.34 9.79 30.74 35.74 48.85 36.66 c 18.25 0.92 39.06 -23.56 55.7 -30.99 a 104.43 104.43 0 0 0 41.72 -34.01 a 110.25 110.25 0 0 0 19.6 -48.94 c 2.58 -18.09 1.38 -36.74 -4.8 -54.02 a 111.86 111.86 0 0 0 -5.58 -12.98 c -1.78 -3.51 -6.99 -4.8 -10.26 -2.69 a 7.68 7.68 0 0 0 -2.69 10.26 q 1.57 3.09 2.91 6.27 l -0.75 -1.79 a 101.15 101.15 0 0 1 6.87 25.54 l -0.26 -1.99 a 109.23 109.23 0 0 1 -0.07 28.68 l 0.27 -1.99 a 109.73 109.73 0 0 1 -7.56 27.67 l 0.76 -1.79 a 104.21 104.21 0 0 1 -6.67 13.1 q -1.92 3.18 -4.08 6.22 c -0.63 0.89 -1.28 1.76 -1.94 2.63 c -0.86 1.14 1.17 -1.48 0.28 -0.37 c -0.15 0.19 -0.3 0.38 -0.45 0.57 q -0.68 0.85 -1.38 1.69 a 93.61 93.61 0 0 1 -10.18 10.38 q -1.36 1.19 -2.78 2.33 c -0.47 0.38 -0.93 0.78 -1.42 1.13 c 0.02 -0.02 1.58 -1.2 0.66 -0.51 c -0.29 0.21 -0.58 0.43 -0.87 0.65 q -2.91 2.15 -5.98 4.09 a 103.49 103.49 0 0 1 -14.75 7.71 l 1.79 -0.75 a 109.21 109.21 0 0 1 -27.6 7.55 l 2 -0.27 a 108.15 108.15 0 0 1 -28.59 0.05 l 1.99 0.27 a 99.83 99.83 0 0 1 -25.09 -6.79 l 1.79 0.76 a 93.64 93.64 0 0 1 -13.42 -6.99 q -3.17 -2 -6.18 -4.25 c -0.29 -0.21 -0.57 -0.43 -0.86 -0.64 c -0.91 -0.69 0.66 0.51 0.67 0.51 a 19.17 19.17 0 0 1 -1.53 -1.22 q -1.45 -1.18 -2.86 -2.42 a 101.99 101.99 0 0 1 -10.5 -10.71 q -1.21 -1.43 -2.37 -2.91 c -0.33 -0.43 -0.95 -1.29 0.4 0.53 c -0.17 -0.24 -0.36 -0.48 -0.54 -0.72 q -0.64 -0.85 -1.27 -1.72 q -2.21 -3.05 -4.19 -6.25 a 109.29 109.29 0 0 1 -7.81 -15.11 l 0.76 1.79 a 106.59 106.59 0 0 1 -7.34 -26.83 l 0.27 1.99 a 97.87 97.87 0 0 1 -0.05 -25.63 l -0.27 1.99 a 94.67 94.67 0 0 1 6.6 -23.96 l -0.76 1.79 a 101.56 101.56 0 0 1 7.2 -13.85 q 2.06 -3.33 4.37 -6.49 q 0.53 -0.72 1.07 -1.43 c 0.32 -0.43 1.21 -1.49 -0.31 0.39 c 0.15 -0.18 0.29 -0.37 0.44 -0.56 q 1.27 -1.61 2.6 -3.16 a 107.4 107.4 0 0 1 10.88 -11.02 q 1.48 -1.3 3 -2.53 q 0.69 -0.57 1.39 -1.12 c 0.18 -0.14 0.37 -0.29 0.56 -0.44 c -2 1.59 -0.56 0.44 -0.1 0.1 q 3.13 -2.35 6.43 -4.46 a 103.64 103.64 0 0 1 15.39 -8.11 l -1.79 0.75 c 7.76 -3.25 42.14 -10.94 48.39 -10.11 l -1.99 -0.26 a 106.22 106.22 0 0 1 26.72 7.38 l -1.79 -0.76 a 110.31 110.31 0 0 1 12.6 6.33 q 3.04 1.79 5.96 3.76 q 1.39 0.94 2.74 1.92 q 0.68 0.49 1.35 0.99 c 0.25 0.18 0.49 0.37 0.74 0.56 c 1.04 0.78 -1.43 -1.13 -0.34 -0.27 a 110.84 110.84 0 0 1 10.37 9.25 q 2.4 2.45 4.63 5.05 q 1.15 1.33 2.25 2.71 c 0.36 0.45 1.6 2.1 0.08 0.08 c 0.37 0.49 0.75 0.98 1.12 1.48 a 97.98 97.98 0 0 1 8.39 13.54 c 1.79 3.5 6.99 4.8 10.26 2.69 a 7.68 7.68 0 0 0 2.69 -10.26 z"
					stroke-linecap="round" />
			</g>
			<g transform="matrix(1 0 0 1 -41.45 162.27)" id="svg_24">
				<path
					style="stroke: none; stroke-width: 1; stroke-dasharray: none; stroke-linecap: butt; stroke-dashoffset: 0; stroke-linejoin: miter; stroke-miterlimit: 4; fill: rgb(63,61,86); fill-rule: nonzero; opacity: 1;"
					transform=" translate(-388.62, -447.84)"
					d="m 432.5 502.45 a 3.78 3.78 0 0 1 -2.74 -6.55 c 0.1 -0.38 0.17 -0.65 0.26 -1.03 q -0.05 -0.12 -0.1 -0.25 c -3.48 -8.29 -25.69 14.84 -26.65 22.64 a 30.03 30.03 0 0 0 0.53 10.32 a 120.39 120.39 0 0 1 -10.95 -50 a 116.2 116.2 0 0 1 0.72 -12.96 q 0.6 -5.3 1.66 -10.51 a 121.79 121.79 0 0 1 24.15 -51.62 c 6.87 0.38 12.9 -0.66 13.48 -13.99 c 0.1 -2.37 1.86 -4.42 2.25 -6.75 c -0.66 0.08 -1.33 0.14 -1.98 0.18 c -0.21 0.01 -0.42 0.02 -0.63 0.03 l -0.07 0.01 a 3.75 3.75 0 0 1 -3.08 -6.1 q 0.42 -0.53 0.85 -1.05 c 0.43 -0.54 0.87 -1.06 1.3 -1.6 a 1.87 1.87 0 0 0 0.14 -0.16 c 0.5 -0.62 0.99 -1.22 1.49 -1.83 a 10.83 10.83 0 0 0 -3.55 -3.43 c -4.96 -2.91 -11.81 -0.9 -15.39 3.59 c -3.59 4.48 -4.27 10.78 -3.02 16.38 a 43.4 43.4 0 0 0 6 13.39 c -0.27 0.34 -0.55 0.67 -0.82 1.02 a 122.57 122.57 0 0 0 -12.79 20.27 c 1.02 -7.94 -11.41 -36.61 -16.22 -42.68 c -5.77 -7.3 -17.61 -4.12 -18.63 5.13 q -0.01 0.14 -0.02 0.27 q 1.07 0.6 2.09 1.28 a 5.13 5.13 0 0 1 -2.06 9.33 l -0.11 0.02 c -9.55 13.64 21.08 49.15 28.75 41.18 a 125.11 125.11 0 0 0 -6.74 31.69 a 118.66 118.66 0 0 0 0.09 19.16 l -0.03 -0.22 c -1.71 -13.89 -30.94 -34.53 -39.47 -32.81 c -4.92 0.99 -9.76 0.77 -9.01 5.73 q 0.01 0.12 0.03 0.24 a 34.44 34.44 0 0 1 3.86 1.86 q 1.08 0.6 2.1 1.28 a 5.13 5.13 0 0 1 -2.07 9.33 l -0.1 0.02 c -0.08 0.01 -0.14 0.02 -0.22 0.03 c -4.35 14.96 27.91 39.12 47.52 31.43 l 0.01 0 a 125.07 125.07 0 0 0 8.4 24.53 l 30.02 0 c 0.11 -0.33 0.2 -0.68 0.3 -1.01 a 34.1 34.1 0 0 1 -8.3 -0.5 c 2.22 -2.73 4.45 -5.48 6.68 -8.21 a 1.86 1.86 0 0 0 0.14 -0.17 c 1.13 -1.39 2.27 -2.78 3.4 -4.18 l 0 0 a 49.95 49.95 0 0 0 -1.47 -12.73 z m -34.37 -67.61 l 0.02 -0.02 l -0.02 0.04 l 0 -0.02 z m -6.65 59.93 l -0.26 -0.58 c 0.01 -0.42 0.01 -0.84 0 -1.27 c 0 -0.12 -0.02 -0.24 -0.02 -0.35 c 0.1 0.74 0.19 1.48 0.29 2.22 l -0.01 -0.02 z"
					stroke-linecap="round" />
			</g>
			<g transform="matrix(1 0 0 1 -334.82 143.43)" id="svg_25">
				<circle
					style="stroke: none; stroke-width: 1; stroke-dasharray: none; stroke-linecap: butt; stroke-dashoffset: 0; stroke-linejoin: miter; stroke-miterlimit: 4; fill: rgb(63,61,86); fill-rule: nonzero; opacity: 1;"
					cx="0" cy="0" r="11" />
			</g>
			<g transform="matrix(1 0 0 1 -202.82 263.43)" id="svg_26">
				<circle
					style="stroke: none; stroke-width: 1; stroke-dasharray: none; stroke-linecap: butt; stroke-dashoffset: 0; stroke-linejoin: miter; stroke-miterlimit: 4; fill: rgb(63,61,86); fill-rule: nonzero; opacity: 1;"
					cx="0" cy="0" r="11" />
			</g>
			<g transform="matrix(1 0 0 1 298.18 263.43)" id="svg_27">
				<circle
					style="stroke: none; stroke-width: 1; stroke-dasharray: none; stroke-linecap: butt; stroke-dashoffset: 0; stroke-linejoin: miter; stroke-miterlimit: 4; fill: rgb(63,61,86); fill-rule: nonzero; opacity: 1;"
					cx="0" cy="0" r="11" />
			</g>
			<g transform="matrix(1 0 0 1 325.18 123.43)" id="svg_28">
				<circle
					style="stroke: none; stroke-width: 1; stroke-dasharray: none; stroke-linecap: butt; stroke-dashoffset: 0; stroke-linejoin: miter; stroke-miterlimit: 4; fill: rgb(63,61,86); fill-rule: nonzero; opacity: 1;"
					cx="0" cy="0" r="11" />
			</g>
			<g transform="matrix(1 0 0 1 293.18 21.43)" id="svg_29">
				<circle
					style="stroke: none; stroke-width: 1; stroke-dasharray: none; stroke-linecap: butt; stroke-dashoffset: 0; stroke-linejoin: miter; stroke-miterlimit: 4; fill: rgb(63,61,86); fill-rule: nonzero; opacity: 1;"
					cx="0" cy="0" r="11" />
			</g>
			<g transform="matrix(1 0 0 1 -176.77 123.4)" id="svg_30">
				<path
					style="stroke: none; stroke-width: 1; stroke-dasharray: none; stroke-linecap: butt; stroke-dashoffset: 0; stroke-linejoin: miter; stroke-miterlimit: 4; fill: rgb(63,61,86); fill-rule: nonzero; opacity: 1;"
					transform=" translate(-253.3, -408.97)"
					d="m 264.25 409 a 10.95 10.95 0 1 1 -0.21 -2.16 a 10.99 10.99 0 0 1 0.21 2.16 z"
					stroke-linecap="round" />
			</g>
			<g transform="matrix(1 0 0 1 54.18 53.43)" id="svg_31">
				<circle
					style="stroke: none; stroke-width: 1; stroke-dasharray: none; stroke-linecap: butt; stroke-dashoffset: 0; stroke-linejoin: miter; stroke-miterlimit: 4; fill: rgb(63,61,86); fill-rule: nonzero; opacity: 1;"
					cx="0" cy="0" r="11" />
			</g>
			<g transform="matrix(1 0 0 1 -65.77 53.4)" id="svg_32">
				<path
					style="stroke: none; stroke-width: 1; stroke-dasharray: none; stroke-linecap: butt; stroke-dashoffset: 0; stroke-linejoin: miter; stroke-miterlimit: 4; fill: rgb(63,61,86); fill-rule: nonzero; opacity: 1;"
					transform=" translate(-364.3, -338.97)"
					d="m 375.25 339 a 10.95 10.95 0 1 1 -0.21 -2.16 a 10.99 10.99 0 0 1 0.21 2.16 z"
					stroke-linecap="round" />
			</g>
			<g transform="matrix(1 0 0 1 -207.77 21.4)" id="svg_33">
				<path
					style="stroke: none; stroke-width: 1; stroke-dasharray: none; stroke-linecap: butt; stroke-dashoffset: 0; stroke-linejoin: miter; stroke-miterlimit: 4; fill: rgb(63,61,86); fill-rule: nonzero; opacity: 1;"
					transform=" translate(-222.3, -306.97)"
					d="m 233.25 307 a 10.95 10.95 0 1 1 -0.21 -2.16 a 10.99 10.99 0 0 1 0.21 2.16 z"
					stroke-linecap="round" />
			</g>
			<g transform="matrix(1 0 0 1 169.18 147.43)" id="svg_34">
				<circle
					style="stroke: none; stroke-width: 1; stroke-dasharray: none; stroke-linecap: butt; stroke-dashoffset: 0; stroke-linejoin: miter; stroke-miterlimit: 4; fill: rgb(63,61,86); fill-rule: nonzero; opacity: 1;"
					cx="0" cy="0" r="11" />
			</g>
			<g transform="matrix(1 0 0 1 -3.82 42.43)" id="svg_35">
				<circle
					style="stroke: none; stroke-width: 1; stroke-dasharray: none; stroke-linecap: butt; stroke-dashoffset: 0; stroke-linejoin: miter; stroke-miterlimit: 4; fill: rgb(63,61,86); fill-rule: nonzero; opacity: 1;"
					cx="0" cy="0" r="16" />
			</g>
			<g transform="matrix(1 0 0 1 -272.58 -121.07)" id="svg_37">
				<rect
					style="stroke: none; stroke-width: 1; stroke-dasharray: none; stroke-linecap: butt; stroke-dashoffset: 0; stroke-linejoin: miter; stroke-miterlimit: 4; fill: rgb(63,61,86); fill-rule: nonzero; opacity: 1; visibility: hidden;"
					x="0" y="0" rx="0" ry="0" width="0" height="0" />
			</g>
		</g>
	</g>
</svg>