<svg xmlns="http://www.w3.org/2000/svg" data-name="Layer 1" width="800" height="450"
	viewBox="0 0 800 450" xmlns:xlink="http://www.w3.org/1999/xlink">
	<title>welcome</title>
	<g transform="matrix(0.98 0 0 0.98 400.52 115.46)">
		<g style="">
			<g transform="matrix(1 0 0 1 -0.14 92.87)">
				<polygon
					style="stroke: none; stroke-width: 1; stroke-dasharray: none; stroke-linecap: butt; stroke-dashoffset: 0; stroke-linejoin: miter; stroke-miterlimit: 4; fill: #3f3d56; fill-rule: nonzero; opacity: 1;"
					points="36.66,-59.11 36.66,-73.77 -36.66,-73.77 -36.66,-72.86 -36.66,-59.11 -36.66,59.11 -36.66,73.77 -21.99,73.77 36.66,73.77 36.66,59.11 -21.99,59.11 -21.99,-59.11 36.66,-59.11 " />
			</g>
			<g transform="matrix(1 0 0 1 108.91 92.87)">
				<path
					style="stroke: none; stroke-width: 1; stroke-dasharray: none; stroke-linecap: butt; stroke-dashoffset: 0; stroke-linejoin: miter; stroke-miterlimit: 4; fill: #86efac; fill-rule: nonzero; opacity: 1;"
					transform=" translate(-708.91, -542.87)"
					d="M 672.25275 469.09857 V 616.643 h 73.314 V 469.09857 Z m 58.65118 132.8816 h -43.9884 V 483.76142 h 43.9884 Z"
					stroke-linecap="round" />
			</g>
			<g transform="matrix(1 0 0 1 -109.2 93.33)">
				<polygon
					style="stroke: none; stroke-width: 1; stroke-dasharray: none; stroke-linecap: butt; stroke-dashoffset: 0; stroke-linejoin: miter; stroke-miterlimit: 4; fill: #86efac; fill-rule: nonzero; opacity: 1;"
					points="-21.99,58.65 -21.99,-73.31 -36.66,-73.31 -36.66,58.65 -36.66,73.31 -21.99,73.31 36.66,73.31 36.66,58.65 -21.99,58.65 " />
			</g>
			<g transform="matrix(1 0 0 1 -215.5 92.87)">
				<polygon
					style="stroke: none; stroke-width: 1; stroke-dasharray: none; stroke-linecap: butt; stroke-dashoffset: 0; stroke-linejoin: miter; stroke-miterlimit: 4; fill: #3f3d56; fill-rule: nonzero; opacity: 1;"
					points="36.66,-59.11 36.66,-73.77 -36.66,-73.77 -36.66,-72.86 -36.66,-59.11 -36.66,-7.79 -36.66,6.87 -36.66,59.11 -36.66,73.77 -21.99,73.77 36.66,73.77 36.66,59.11 -21.99,59.11 -21.99,6.87 36.66,6.87 36.66,-7.79 -21.99,-7.79 -21.99,-59.11 36.66,-59.11 " />
			</g>
			<g transform="matrix(1 0 0 1 358.18 92.87)">
				<polygon
					style="stroke: none; stroke-width: 1; stroke-dasharray: none; stroke-linecap: butt; stroke-dashoffset: 0; stroke-linejoin: miter; stroke-miterlimit: 4; fill: #86efac; fill-rule: nonzero; opacity: 1;"
					points="36.66,-59.11 36.66,-73.77 -36.66,-73.77 -36.66,-72.86 -36.66,-59.11 -36.66,-7.79 -36.66,6.87 -36.66,59.11 -36.66,73.77 -21.99,73.77 36.66,73.77 36.66,59.11 -21.99,59.11 -21.99,6.87 36.66,6.87 36.66,-7.79 -21.99,-7.79 -21.99,-59.11 36.66,-59.11 " />
			</g>
			<g transform="matrix(1 0 0 1 -340.83 93.1)">
				<polygon
					style="stroke: none; stroke-width: 1; stroke-dasharray: none; stroke-linecap: butt; stroke-dashoffset: 0; stroke-linejoin: miter; stroke-miterlimit: 4; fill: #3f3d56; fill-rule: nonzero; opacity: 1;"
					points="39.18,-73.09 39.18,48.1 0.52,9.44 0.43,9.53 0.35,9.45 -39.18,48.97 -39.18,-73.54 -53.84,-73.54 -53.84,73.08 -39.18,73.08 -39.18,69.71 0.44,30.09 39.18,68.84 39.18,73.54 53.84,73.54 53.84,-73.09 39.18,-73.09 " />
			</g>
			<g transform="matrix(1 0 0 1 233.77 93.1)">
				<polygon
					style="stroke: none; stroke-width: 1; stroke-dasharray: none; stroke-linecap: butt; stroke-dashoffset: 0; stroke-linejoin: miter; stroke-miterlimit: 4; fill: #3f3d56; fill-rule: nonzero; opacity: 1;"
					points="39.18,-73.09 39.18,-69.71 -0.43,-30.1 -39.18,-68.84 -39.18,-73.54 -53.84,-73.54 -53.84,73.08 -39.18,73.08 -39.18,-48.1 -0.52,-9.44 -0.43,-9.53 -0.35,-9.45 39.18,-48.97 39.18,73.54 53.84,73.54 53.84,-73.09 39.18,-73.09 " />
			</g>
			<g transform="matrix(1 0 0 1 -109.46 -79.31)">
				<circle
					style="stroke: none; stroke-width: 1; stroke-dasharray: none; stroke-linecap: butt; stroke-dashoffset: 0; stroke-linejoin: miter; stroke-miterlimit: 4; fill: #86efac; fill-rule: nonzero; opacity: 1;"
					cx="0" cy="0" r="9" />
			</g>
			<g transform="matrix(1 0 0 1 -331.46 20.69)">
				<circle
					style="stroke: none; stroke-width: 1; stroke-dasharray: none; stroke-linecap: butt; stroke-dashoffset: 0; stroke-linejoin: miter; stroke-miterlimit: 4; fill: #86efac; fill-rule: nonzero; opacity: 1;"
					cx="0" cy="0" r="9" />
			</g>
			<g transform="matrix(1 0 0 1 -153.46 220.69)">
				<circle
					style="stroke: none; stroke-width: 1; stroke-dasharray: none; stroke-linecap: butt; stroke-dashoffset: 0; stroke-linejoin: miter; stroke-miterlimit: 4; fill: #86efac; fill-rule: nonzero; opacity: 1;"
					cx="0" cy="0" r="9" />
			</g>
			<g transform="matrix(1 0 0 1 72.54 -52.31)">
				<circle
					style="stroke: none; stroke-width: 1; stroke-dasharray: none; stroke-linecap: butt; stroke-dashoffset: 0; stroke-linejoin: miter; stroke-miterlimit: 4; fill: #86efac; fill-rule: nonzero; opacity: 1;"
					cx="0" cy="0" r="9" />
			</g>
			<g transform="matrix(1 0 0 1 337.54 212.69)">
				<circle
					style="stroke: none; stroke-width: 1; stroke-dasharray: none; stroke-linecap: butt; stroke-dashoffset: 0; stroke-linejoin: miter; stroke-miterlimit: 4; fill: #86efac; fill-rule: nonzero; opacity: 1;"
					cx="0" cy="0" r="9" />
			</g>
			<g transform="matrix(1 0 0 1 346.54 -23.31)">
				<circle
					style="stroke: none; stroke-width: 1; stroke-dasharray: none; stroke-linecap: butt; stroke-dashoffset: 0; stroke-linejoin: miter; stroke-miterlimit: 4; fill: #86efac; fill-rule: nonzero; opacity: 1;"
					cx="0" cy="0" r="9" />
			</g>
			<g transform="matrix(1 0 0 1 232.54 138.69)">
				<circle
					style="stroke: none; stroke-width: 1; stroke-dasharray: none; stroke-linecap: butt; stroke-dashoffset: 0; stroke-linejoin: miter; stroke-miterlimit: 4; fill: #86efac; fill-rule: nonzero; opacity: 1;"
					cx="0" cy="0" r="9" />
			</g>
		</g>
	</g>
</svg>